<svg width="767" height="781" viewBox="0 0 767 781" fill="none" xmlns="http://www.w3.org/2000/svg">
<rect x="19" y="203" width="694" height="287" rx="30" fill="#F4F4F4"/>
<path d="M245.074 416H191.906V277.818H244.534C258.748 277.818 271.028 280.585 281.374 286.117C291.764 291.605 299.771 299.522 305.393 309.867C311.061 320.168 313.895 332.515 313.895 346.909C313.895 361.303 311.084 373.673 305.461 384.018C299.838 394.319 291.877 402.236 281.576 407.768C271.275 413.256 259.108 416 245.074 416ZM229.42 384.153H243.724C250.562 384.153 256.387 383.051 261.2 380.847C266.058 378.643 269.746 374.842 272.265 369.445C274.829 364.047 276.111 356.535 276.111 346.909C276.111 337.283 274.806 329.771 272.197 324.374C269.634 318.976 265.855 315.175 260.862 312.971C255.914 310.767 249.842 309.665 242.645 309.665H229.42V384.153ZM331.252 416V277.818H430.84V308.045H368.766V331.795H425.712V362.023H368.766V385.773H430.57V416H331.252ZM449.445 416V277.818H486.96V385.773H542.826V416H449.445Z" fill="#FF1725"/>
</svg>
