<svg width="899" height="794" viewBox="0 0 899 794" fill="none" xmlns="http://www.w3.org/2000/svg">
<path d="M337 160C313 128 289 136 249 128C185 120 150.6 76 142.6 4.64H183.4C183.4 4.56 176.2 88 281 96C329 96 353 112 369 144C377 152 337 160 337 160Z" fill="#444444" stroke="#333333" stroke-width="8"/>
<path d="M641 168C753 240 849 360 881 480C897 552 905 688 793 744C673 800 561 808 433 712C313 616 201 480 159.4 424C132.2 392 120.2 360 125 304C124.2 264 122.6 256 209 208C393 128 473 136 537 136C593 136 641 168 641 168Z" fill="#444444" stroke="#333333" stroke-width="16"/>
<path d="M753 264C769 304 593 352 593 352C593 352 497 200 369 152C369 152 465 136 521 136C561 136 601 136 673 184C721 224 753 264 753 264ZM753 264C769 304 593 352 593 352C593 352 497 200 369 152C369 152 465 136 521 136C561 136 601 136 673 184C721 224 753 264 753 264Z" fill="#626262"/>
<path d="M753 264C769 304 593 352 593 352C593 352 497 200 369 152C369 152 465 136 521 136C561 136 601 136 673 184C721 224 753 264 753 264Z" stroke="#CCCCCC" stroke-width="8"/>
<path d="M353 392C337 360 257 264 172.2 232C225 200 321 168 361 152C489 200 585 352 585 352C585 352 497 408 433 416C369 424 369 416 353 392Z" fill="#FF0000" stroke="#CCCCCC" stroke-width="8"/>
<path d="M425 184C401 208 497 296 521 264C553 240 465 160 425 184Z" fill="#333333" stroke="#CCCCCC" stroke-width="12"/>
<path d="M641 168C753 240 849 360 881 480C897 552 905 688 793 744C673 800 561 808 433 712C313 616 201 480 159.4 424C132.2 392 120.2 360 125 304C124.2 264 122.6 256 209 208C393 128 473 136 537 136C593 136 641 168 641 168Z" stroke="#222222" stroke-width="16"/>
<path d="M361 432C449 624 713 744 873 520C745 792 417 680 361 432Z" fill="#CCCCCC"/>
<circle cx="124" cy="271" r="124" fill="white"/>
<path d="M62.8125 244.182L74.7443 269.537L87.3153 244.182H116.506L94.5597 285.091L117.571 326H88.5938L74.7443 300.006L61.321 326H31.9176L55.142 285.091L33.4091 244.182H62.8125ZM126.746 326V304.693L167.442 271.028C170.141 268.791 172.449 266.696 174.367 264.743C176.32 262.754 177.812 260.712 178.841 258.617C179.907 256.522 180.439 254.196 180.439 251.639C180.439 248.834 179.836 246.437 178.628 244.448C177.457 242.46 175.823 240.933 173.728 239.867C171.633 238.766 169.218 238.216 166.483 238.216C163.749 238.216 161.334 238.766 159.239 239.867C157.18 240.968 155.581 242.584 154.445 244.714C153.309 246.845 152.741 249.437 152.741 252.491H124.616C124.616 244.821 126.338 238.216 129.782 232.676C133.227 227.136 138.092 222.875 144.378 219.892C150.663 216.909 158.032 215.418 166.483 215.418C175.219 215.418 182.783 216.82 189.175 219.626C195.603 222.396 200.557 226.302 204.037 231.344C207.552 236.387 209.31 242.3 209.31 249.082C209.31 253.273 208.44 257.445 206.7 261.6C204.96 265.719 201.835 270.283 197.325 275.29C192.815 280.297 186.405 286.263 178.096 293.188L167.868 301.71V302.349H210.482V326H126.746Z" fill="#FF0000"/>
</svg>
