<svg width="784" height="794" viewBox="0 0 784 794" fill="none" xmlns="http://www.w3.org/2000/svg">
<path d="M222 160C198 128 174 136 134 128C70 120 35.6 76 27.6 4.64H68.4C68.4 4.56 61.2 88 166 96C214 96 238 112 254 144C262 152 222 160 222 160Z" fill="#444444" stroke="#333333" stroke-width="8"/>
<path d="M526 168C638 240 734 360 766 480C782 552 790 688 678 744C558 800 446 808 318 712C198 616 86 480 44.4 424C17.2 392 5.2 360 10 304C9.2 264 7.6 256 94 208C278 128 358 136 422 136C478 136 526 168 526 168Z" fill="#444444" stroke="#333333" stroke-width="16"/>
<path d="M638 264C654 304 478 352 478 352C478 352 382 200 254 152C254 152 350 136 406 136C446 136 486 136 558 184C606 224 638 264 638 264ZM638 264C654 304 478 352 478 352C478 352 382 200 254 152C254 152 350 136 406 136C446 136 486 136 558 184C606 224 638 264 638 264Z" fill="#626262"/>
<path d="M638 264C654 304 478 352 478 352C478 352 382 200 254 152C254 152 350 136 406 136C446 136 486 136 558 184C606 224 638 264 638 264Z" stroke="#CCCCCC" stroke-width="8"/>
<path d="M238 392C222 360 142 264 57.2 232C110 200 206 168 246 152C374 200 470 352 470 352C470 352 382 408 318 416C254 424 254 416 238 392Z" fill="#FF0000" stroke="#CCCCCC" stroke-width="8"/>
<path d="M310 184C286 208 382 296 406 264C438 240 350 160 310 184Z" fill="#333333" stroke="#CCCCCC" stroke-width="12"/>
<path d="M526 168C638 240 734 360 766 480C782 552 790 688 678 744C558 800 446 808 318 712C198 616 86 480 44.4 424C17.2 392 5.2 360 10 304C9.2 264 7.6 256 94 208C278 128 358 136 422 136C478 136 526 168 526 168Z" stroke="#222222" stroke-width="16"/>
<path d="M246 432C334 624 598 744 758 520C630 792 302 680 246 432Z" fill="#CCCCCC"/>
</svg>
